<?xml version="1.0" encoding="UTF-8" standalone="no"?>
<!-- Generator: Adobe Illustrator 27.0.1, SVG Export Plug-In . SVG Version: 6.00 Build 0)  -->

<svg
   version="1.1"
   id="Layer_1"
   x="0px"
   y="0px"
   viewBox="0 0 712.00001 711.99999"
   xml:space="preserve"
   width="712"
   height="712"
   xmlns="http://www.w3.org/2000/svg"
   xmlns:svg="http://www.w3.org/2000/svg"><defs
   id="defs37" />
<style
   type="text/css"
   id="style2">
	.st0{fill:#FFFFFF;stroke:#000000;stroke-miterlimit:10;}
	.st1{fill:#17541F;stroke:#000000;stroke-miterlimit:10;}
</style>










<path
   class="st1"
   d="m 191.7405,682.47244 c -3.5,-16.5 -10.4,-49.6 -11.3,-49.6 -147.100002,-88 -129.700002,-240.3 -81,-327.4 10.4,109.7 204.6,185.4 91.4,319.5 -0.9,1.7 5.2,22.6 10.4,41.8 22.6,-38.3 56.6,-84.4 54.8,-88.8 -139.3,-339.5 296,-365.6 386.5,-576.2999986 40.9,203.6999986 -20.9,518.8999986 -370.8,598.9999986 -1.7,0.9 -63.5,109.7 -66.2,110.6 0,-1.7 -26.1,-0.9 -22.6,-9.6 1.9,-5.3 5.3,-12.2 8.8,-19.2 z m -4.3,-81.8 c 44.4,-51.4 -7.8,-139.3 -39.2,-168 53.1,91.3 49.6,144.4 39.2,168 z"
   id="path32" />
</svg>
